<svg xmlns="http://www.w3.org/2000/svg" id="canvas"><circle cx="13.142085066796767%" cy="38.15052509031969%" r="13.567300796640874%" fill="rgba(11, 48, 219, 0.4041255473867351)"/><circle cx="26.704740518868142%" cy="26.99589728773476%" r="21.753780367028384%" fill="rgba(10, 55, 200, 0.44339766501062494)"/><circle cx="11.459588995543214%" cy="5.158686627437987%" r="18.532199860907205%" fill="rgba(50, 147, 13, 0.30896992678962876)"/><circle cx="75.63488484025814%" cy="49.78313446039873%" r="15.238321304842438%" fill="rgba(21, 61, 155, 0.2162428855235322)"/><circle cx="45.76351642510004%" cy="69.71395016175553%" r="21.867019655384826%" fill="rgba(233, 14, 230, 0.4235809325993948)"/><circle cx="49.17831420879306%" cy="87.42923737443732%" r="3.383689878132122%" fill="rgba(212, 7, 56, 0.2532010077855552)"/><circle cx="39.999914166983196%" cy="55.26411533478277%" r="10.752712249232623%" fill="rgba(109, 2, 49, 0.48588485717444796)"/><circle cx="64.87467289317276%" cy="52.18477249196376%" r="9.450992583402197%" fill="rgba(54, 171, 26, 0.5737504482441)"/><circle cx="2.20880507310126%" cy="13.52124213323026%" r="14.076860428107171%" fill="rgba(184, 217, 44, 0.5745676994497347)"/><circle cx="16.38467311076463%" cy="17.301464073197323%" r="2.797140119084423%" fill="rgba(138, 90, 145, 0.39400310513889486)"/><circle cx="23.30512999866743%" cy="99.5661258812915%" r="18.983280183277856%" fill="rgba(33, 10, 119, 0.2983048915393429)"/><circle cx="50.457596778976175%" cy="28.687214846417124%" r="4.540092466291993%" fill="rgba(179, 227, 237, 0.5851843834121675)"/><circle cx="68.28975677916077%" cy="49.21064376812676%" r="24.369791033531023%" fill="rgba(186, 195, 38, 0.23853082650772545)"/><circle cx="61.73124313627632%" cy="93.80152226514218%" r="16.552721024386752%" fill="rgba(191, 56, 64, 0.30779190059001366)"/><circle cx="88.04697991303331%" cy="90.31939507469521%" r="21.026708604774136%" fill="rgba(18, 12, 60, 0.4733790397582061)"/><circle cx="66.10252857583168%" cy="90.45021534907869%" r="23.371889116794776%" fill="rgba(158, 58, 74, 0.43170795439083776)"/><circle cx="29.73713874345113%" cy="49.7668504714423%" r="13.568136215342241%" fill="rgba(179, 214, 149, 0.7278092384868788)"/><circle cx="10.341739645307356%" cy="87.11643219858325%" r="21.115966798764646%" fill="rgba(245, 61, 154, 0.49931006431563524)"/><circle cx="77.62715817141047%" cy="84.87064839221318%" r="21.437305452403915%" fill="rgba(156, 197, 226, 0.6004901409383142)"/><circle cx="59.13770199034775%" cy="55.97636699815662%" r="9.425415038230227%" fill="rgba(117, 140, 72, 0.679369545024673)"/><circle cx="27.223443979682273%" cy="82.89375305941648%" r="14.766418457442526%" fill="rgba(47, 136, 13, 0.2934279918189691)"/><circle cx="34.4368934595112%" cy="33.85729789358035%" r="17.623630524758163%" fill="rgba(219, 237, 188, 0.3551356792112662)"/><circle cx="78.36329937641585%" cy="71.87316418203366%" r="15.253919601965212%" fill="rgba(24, 145, 59, 0.5802325248905068)"/><circle cx="41.9259548168457%" cy="61.18500232956954%" r="2.1086807225618234%" fill="rgba(239, 228, 1, 0.3264433383537557)"/><circle cx="68.64573955970019%" cy="50.40454864511372%" r="14.16784095791351%" fill="rgba(185, 34, 171, 0.747155046520558)"/><circle cx="91.01455212594348%" cy="41.30887985027137%" r="7.892816542389992%" fill="rgba(95, 106, 154, 0.3331605910866429)"/><circle cx="54.01165485475484%" cy="16.808438293358414%" r="3.3971309639506817%" fill="rgba(40, 11, 113, 0.6743731975961414)"/><circle cx="1.587915409260411%" cy="20.496869080350006%" r="13.753461837943984%" fill="rgba(44, 223, 241, 0.6374718666396737)"/><circle cx="19.830965988764298%" cy="22.367954247716803%" r="1.5448131534608116%" fill="rgba(72, 141, 166, 0.5864591121874887)"/></svg>